<svg width="14" height="14" viewBox="0 0 14 14" fill="none" xmlns="http://www.w3.org/2000/svg">
<rect x="0.642057" y="0.701535" width="12.7677" height="12.7677" stroke="white" stroke-width="0.41186"/>
<g clip-path="url(#clip0_32_161)">
<path d="M6.9753 5.42015C6.04963 5.42015 5.30299 6.16294 5.30299 7.08384C5.30299 8.00473 6.04963 8.74752 6.9753 8.74752C7.90096 8.74752 8.6476 8.00473 8.6476 7.08384C8.6476 6.16294 7.90096 5.42015 6.9753 5.42015ZM6.9753 8.16545C6.37711 8.16545 5.88808 7.68039 5.88808 7.08384C5.88808 6.48728 6.37565 6.00222 6.9753 6.00222C7.57494 6.00222 8.06251 6.48728 8.06251 7.08384C8.06251 7.68039 7.57348 8.16545 6.9753 8.16545ZM9.10606 5.35209C9.10606 5.56784 8.93141 5.74014 8.71601 5.74014C8.49914 5.74014 8.32595 5.56639 8.32595 5.35209C8.32595 5.1378 8.5006 4.96405 8.71601 4.96405C8.93141 4.96405 9.10606 5.1378 9.10606 5.35209ZM10.2137 5.74594C10.1889 5.22612 10.0696 4.76568 9.68679 4.38632C9.30546 4.00695 8.84263 3.88822 8.32013 3.86216C7.78161 3.83175 6.16752 3.83175 5.62901 3.86216C5.10796 3.88678 4.64513 4.00551 4.26235 4.38487C3.87957 4.76423 3.76168 5.22468 3.73548 5.74449C3.70491 6.28023 3.70491 7.886 3.73548 8.42173C3.76022 8.94155 3.87957 9.40199 4.26235 9.78135C4.64513 10.1607 5.10651 10.2794 5.62901 10.3055C6.16752 10.3359 7.78161 10.3359 8.32013 10.3055C8.84263 10.2809 9.30546 10.1622 9.68679 9.78135C10.0681 9.40199 10.1875 8.94155 10.2137 8.42173C10.2442 7.886 10.2442 6.28167 10.2137 5.74594ZM9.51795 8.99657C9.40443 9.28037 9.18466 9.499 8.89794 9.61339C8.46858 9.7828 7.44977 9.74371 6.9753 9.74371C6.50082 9.74371 5.48055 9.78135 5.05265 9.61339C4.76739 9.50045 4.54762 9.28181 4.43264 8.99657C4.26235 8.56943 4.30165 7.55586 4.30165 7.08384C4.30165 6.61181 4.2638 5.5968 4.43264 5.1711C4.54616 4.8873 4.76593 4.66867 5.05265 4.55428C5.48201 4.38487 6.50082 4.42396 6.9753 4.42396C7.44977 4.42396 8.47004 4.38632 8.89794 4.55428C9.1832 4.66722 9.40297 4.88586 9.51795 5.1711C9.68824 5.59824 9.64894 6.61181 9.64894 7.08384C9.64894 7.55586 9.68824 8.57087 9.51795 8.99657Z" fill="white"/>
</g>
<defs>
<clipPath id="clip0_32_161">
<rect width="6.58976" height="7.41348" fill="white" transform="translate(3.73105 3.37842)"/>
</clipPath>
</defs>
</svg>
