<svg width="14" height="14" viewBox="0 0 14 14" fill="none" xmlns="http://www.w3.org/2000/svg">
<rect x="0.8728" y="0.701535" width="12.7677" height="12.7677" stroke="white" stroke-width="0.41186"/>
<g clip-path="url(#clip0_32_156)">
<path d="M5.42487 9.96794V5.79972H4.02694V9.96794H5.42487ZM4.72608 5.23028C5.21357 5.23028 5.517 4.91021 5.517 4.51023C5.50792 4.10123 5.21358 3.79004 4.73533 3.79004C4.25716 3.79004 3.94446 4.10123 3.94446 4.51023C3.94446 4.91023 4.24782 5.23028 4.71696 5.23028H4.72604H4.72608ZM6.19862 9.96794H7.59655V7.6402C7.59655 7.51563 7.60563 7.39118 7.64255 7.30212C7.74361 7.05322 7.97362 6.79543 8.35979 6.79543C8.86564 6.79543 9.06801 7.17767 9.06801 7.73801V9.96791H10.4659V7.57789C10.4659 6.29758 9.77619 5.70186 8.85644 5.70186C8.10231 5.70186 7.7712 6.11963 7.58725 6.40416H7.59658V5.79963H6.19865C6.21699 6.19076 6.19865 9.96785 6.19865 9.96785L6.19862 9.96794Z" fill="white"/>
</g>
<defs>
<clipPath id="clip0_32_156">
<rect width="6.58976" height="6.1779" fill="white" transform="translate(3.96173 3.79028)"/>
</clipPath>
</defs>
</svg>
