<svg width="15" height="14" viewBox="0 0 15 14" fill="none" xmlns="http://www.w3.org/2000/svg">
<rect x="1.10351" y="0.701535" width="12.7677" height="12.7677" stroke="white" stroke-width="0.41186"/>
<g clip-path="url(#clip0_32_151)">
<path d="M11.1031 4.90455C10.8285 5.02171 10.5371 5.09862 10.2388 5.13271C10.5495 4.95338 10.7881 4.66941 10.9005 4.33107C10.6051 4.49985 10.2819 4.61877 9.94483 4.68268C9.67029 4.40109 9.27919 4.2251 8.84632 4.2251C8.01518 4.2251 7.34132 4.87387 7.34132 5.67406C7.34132 5.78764 7.35464 5.89821 7.38029 6.00429C6.12954 5.94384 5.02063 5.36699 4.27834 4.49034C4.14883 4.70434 4.07461 4.95327 4.07461 5.21879C4.07461 5.72151 4.34032 6.165 4.74412 6.42485C4.50513 6.41765 4.2714 6.3555 4.06244 6.2436C4.06235 6.24967 4.06235 6.25573 4.06235 6.26183C4.06235 6.96388 4.5811 7.54953 5.26955 7.68265C5.04793 7.74068 4.81547 7.74917 4.58993 7.70748C4.78142 8.28314 5.33723 8.70205 5.99575 8.71378C5.4807 9.10239 4.83177 9.33405 4.12671 9.33405C4.00521 9.33405 3.88544 9.32718 3.7677 9.3138C4.43371 9.72493 5.22476 9.96481 6.07464 9.96481C8.84282 9.96481 10.3565 7.75686 10.3565 5.8421C10.3565 5.77925 10.3551 5.71676 10.3522 5.65463C10.6468 5.44956 10.9011 5.19556 11.1031 4.90455Z" fill="white"/>
</g>
<defs>
<clipPath id="clip0_32_151">
<rect width="7.41348" height="5.76604" fill="white" transform="translate(3.78067 4.20239)"/>
</clipPath>
</defs>
</svg>
